<svg version="1.1" id="Layer_1" xmlns="http://www.w3.org/2000/svg" xmlns:xlink="http://www.w3.org/1999/xlink" x="0px" y="0px"
	 width="100%" viewBox="0 0 1024 576" enable-background="new 0 0 1024 576" xml:space="preserve">
<path fill="#000000" opacity="1.000000" stroke="none" 
	d="
M447.404724,309.410278 
	C433.349884,321.372772 419.553925,333.093292 405.757965,344.813782 
	C405.434937,344.481018 405.111908,344.148254 404.788879,343.815460 
	C446.264526,298.177979 490.587585,255.252609 533.113708,210.583984 
	C511.644745,225.221512 492.817932,242.923965 474.299896,261.287384 
	C466.339661,244.939270 483.124725,192.938217 499.166077,184.109955 
	C497.409576,193.896454 495.105560,203.281647 497.829193,213.070312 
	C498.429047,210.689041 499.077972,208.318863 499.619781,205.924454 
	C501.426636,197.939682 504.207153,190.312485 507.476166,182.805283 
	C514.591858,166.464157 528.948364,158.708511 543.992249,151.997467 
	C569.980652,140.404175 597.348633,133.259689 625.207642,127.864906 
	C626.329956,127.647591 627.503784,127.332779 629.328308,128.410126 
	C626.293457,132.015091 626.345154,137.129562 622.817749,140.587250 
	C621.236816,142.136887 620.241699,144.039917 619.341370,146.024124 
	C611.038940,164.322418 603.584717,182.977264 596.109070,201.619125 
	C592.148315,211.495972 586.316345,220.236511 579.628723,228.293045 
	C574.887146,234.005157 567.700195,236.649597 560.893372,239.370819 
	C552.517151,242.719452 543.745239,244.710831 534.904785,246.405746 
	C534.130249,246.554230 533.399475,246.930710 532.679626,247.746765 
	C541.361511,249.607819 550.080872,248.813309 559.074402,248.368530 
	C554.871887,252.995987 550.047729,256.669861 544.608643,259.304016 
	C529.566956,266.588776 513.714478,270.681244 496.883606,270.294373 
	C494.050842,270.229309 491.859833,271.091492 489.684753,272.985107 
	C475.743744,285.122009 461.684174,297.122772 447.404724,309.410278 
M559.006409,205.639435 
	C561.642212,197.410339 569.639160,195.497681 576.352844,191.894501 
	C574.213867,189.470352 571.801697,189.112030 569.688904,188.308228 
	C564.724854,186.419678 561.289917,183.123016 559.165710,178.268234 
	C558.359192,176.424896 558.273804,173.385468 555.467041,173.633728 
	C553.048767,173.847595 552.553955,176.610031 551.724915,178.540176 
	C549.289246,184.210648 545.816162,188.484818 539.198608,189.401276 
	C537.257507,189.670105 535.428711,190.749664 533.548401,191.457657 
	C533.471863,191.866928 533.395264,192.276215 533.318665,192.685501 
	C545.528320,194.245758 552.003784,201.780640 554.658875,213.296021 
	C555.069214,213.187561 555.479553,213.079086 555.889893,212.970627 
	C556.833984,210.754654 557.778076,208.538681 559.006409,205.639435 
z"/>
<path fill="#000000" opacity="1.000000" stroke="none" 
	d="
M453.812256,226.847778 
	C432.122070,242.689453 410.712097,258.307770 389.302155,273.926086 
	C388.949677,273.510193 388.597198,273.094299 388.244720,272.678406 
	C392.403839,268.785797 396.373657,264.660706 400.780762,261.072723 
	C404.439240,258.094208 405.343292,255.311340 404.092499,250.445236 
	C387.444794,185.677780 431.957275,118.383011 497.987549,107.564827 
	C529.183289,102.453812 557.842834,108.411217 584.427673,125.201324 
	C585.551453,125.911041 586.624695,126.710632 587.660583,127.544075 
	C588.013245,127.827850 588.178528,128.344574 588.422607,128.743607 
	C583.965637,132.758102 580.478455,137.643509 573.621948,138.386932 
	C568.804626,138.909271 564.454712,138.725098 559.968384,137.076416 
	C552.631775,134.380219 545.234192,131.843872 537.815674,129.380585 
	C536.049438,128.794113 534.126770,127.753471 531.851990,129.181793 
	C534.878967,135.310547 540.904236,138.922760 544.265381,144.825516 
	C541.350281,147.493713 539.037659,147.487091 536.612183,144.455475 
	C534.016113,141.210709 531.126587,138.202515 528.429321,135.036392 
	C526.567261,132.850769 524.168579,132.389587 521.438843,131.847519 
	C512.804199,130.132874 508.596130,135.766846 504.675934,141.578369 
	C502.552460,144.726364 504.519653,147.015152 507.872070,147.700912 
	C513.406555,148.833054 518.993103,149.712418 524.561279,150.677338 
	C525.987488,150.924500 527.643066,150.560745 528.592834,152.491989 
	C526.324219,155.099274 523.788513,156.642807 519.981079,155.700989 
	C516.928833,154.945938 513.756958,154.465378 510.617432,154.324646 
	C506.643524,154.146484 505.280029,156.582581 507.090179,160.160675 
	C507.538605,161.047104 508.110870,161.884445 508.716888,162.674835 
	C510.044739,164.406799 510.193146,165.974167 508.270660,167.380814 
	C506.224823,168.877686 505.065643,167.338821 504.286133,165.932312 
	C501.455780,160.825516 497.111786,158.550201 491.431488,157.722473 
	C488.768463,157.334412 486.623291,157.289200 484.377563,158.778549 
	C477.437103,163.381485 470.426971,167.879272 463.479584,172.471863 
	C461.816864,173.571030 460.043152,174.760803 460.329803,177.166748 
	C460.624908,179.643143 462.759247,180.147858 464.617828,180.789078 
	C471.508545,183.166473 478.042145,186.576645 485.692230,188.046295 
	C482.469055,193.875015 478.966492,199.457718 476.226715,205.392532 
	C473.881561,210.472565 471.480774,215.148132 466.447113,218.168137 
	C462.175385,220.731003 458.199371,223.786743 453.812256,226.847778 
M427.059143,231.053085 
	C428.902893,233.441238 430.762299,233.938522 433.258301,231.685776 
	C438.561554,226.899368 444.024780,222.289413 449.452087,217.641769 
	C451.278748,216.077469 451.809509,214.257141 451.391266,211.870941 
	C450.389862,206.157410 449.550507,200.414200 448.730499,194.670868 
	C448.454895,192.740356 447.992432,190.973862 445.857330,190.502670 
	C443.857483,190.061264 442.880554,191.668121 441.922729,192.999222 
	C437.167572,199.607727 432.620789,206.373566 427.678925,212.838089 
	C423.264008,218.613373 424.985321,224.512161 427.059143,231.053085 
M430.092224,173.589371 
	C423.777649,185.987640 418.280334,198.612213 418.298553,213.305740 
	C421.282349,212.907425 422.253662,211.257141 423.266937,209.827911 
	C428.275970,202.762787 433.170380,195.616257 438.193237,188.561157 
	C439.923370,186.131027 440.753204,183.878296 439.758972,180.731857 
	C438.578735,176.996719 439.529999,173.207932 442.934784,170.949417 
	C446.460632,168.610611 446.783905,165.435547 446.599670,161.806931 
	C446.500732,159.858841 446.168610,158.100723 444.040222,157.436325 
	C442.087372,156.826691 440.983307,158.150742 439.835876,159.419128 
	C436.119446,163.527496 433.550476,168.422852 430.092224,173.589371 
M484.570953,144.745529 
	C488.466309,141.501511 491.927887,137.279526 497.989960,139.014771 
	C498.460999,139.149597 499.328491,138.671188 499.710510,138.221741 
	C502.455109,134.992813 505.753052,132.146561 507.326050,128.084915 
	C505.265350,125.623070 502.999146,126.670471 500.726440,126.912598 
	C494.199829,127.607910 488.381226,130.652969 482.226715,132.517288 
	C476.224121,134.335617 470.239258,136.351425 464.272980,138.358200 
	C462.403107,138.987137 460.278015,140.133301 460.529694,142.465118 
	C460.832703,145.272430 463.437012,144.673264 465.308502,144.715057 
	C471.450775,144.852280 477.595886,144.861679 484.570953,144.745529 
M459.056183,168.668655 
	C466.776764,163.345123 475.100189,158.874863 482.418915,153.071945 
	C480.942169,150.200119 478.830627,150.384018 476.880341,150.344406 
	C473.055054,150.266708 469.227722,150.280411 465.401215,150.271515 
	C456.155090,150.250031 451.258423,155.739395 452.094666,165.071442 
	C452.469971,169.259216 454.354218,170.810913 459.056183,168.668655 
M475.126282,193.057220 
	C475.236786,192.211349 475.307190,191.164032 474.487366,190.820175 
	C470.074738,188.969421 465.729004,186.726227 461.119293,185.656754 
	C457.795807,184.885681 454.619629,187.256119 454.333740,190.715698 
	C453.818695,196.948822 455.449860,203.001938 457.529205,209.961441 
	C464.083771,204.447327 470.598206,200.305420 475.126282,193.057220 
M422.479980,234.734619 
	C420.807526,234.016144 419.031067,233.746490 418.484772,235.915039 
	C418.015900,237.776184 417.855347,239.919983 419.438934,241.499313 
	C420.526184,242.583618 421.575684,241.734512 422.494659,241.030212 
	C424.272949,239.667374 425.081848,238.051468 423.640442,235.950928 
	C423.455658,235.681641 423.227570,235.442139 422.479980,234.734619 
z"/>
<path fill="#000000" opacity="1.000000" stroke="none" 
	d="
M611.545227,179.346161 
	C613.789612,173.496552 615.962463,168.017441 618.259155,162.225937 
	C621.397217,164.125473 622.341064,166.709335 623.519226,168.988495 
	C637.594910,196.217422 640.593567,224.776306 632.848267,254.309921 
	C625.937683,280.660614 610.980042,301.638367 589.544434,318.468842 
	C583.556458,323.170380 577.143921,326.935364 570.883057,331.068939 
	C569.178955,332.194061 567.365601,332.907166 565.334473,333.173187 
	C564.023987,333.344818 562.650269,333.517517 561.458374,334.039917 
	C537.560669,344.513214 512.892395,342.448639 488.223328,338.185364 
	C482.425415,337.183411 476.898560,334.399445 471.370270,332.134491 
	C468.277740,330.867493 467.511139,328.871307 470.391632,326.130310 
	C487.775970,309.587769 504.476349,292.358582 521.265625,275.219086 
	C522.065125,274.402863 523.028870,273.503357 524.074890,273.211334 
	C532.700928,270.802704 541.114014,267.837616 549.900452,263.321045 
	C548.554321,267.508728 545.509949,269.035828 543.249817,271.154572 
	C539.607178,274.569305 535.710632,277.713531 532.075745,281.135986 
	C528.975098,284.055450 529.529480,286.173279 533.542419,287.670563 
	C544.600708,291.796692 550.815857,288.529236 554.174988,276.947266 
	C555.751221,271.512329 557.674622,266.174927 559.148132,260.714386 
	C560.269836,256.557556 562.694031,253.671677 566.617065,251.481125 
	C570.252136,254.742233 574.507751,257.252930 578.793274,259.700317 
	C583.489807,262.382446 585.527710,261.329559 585.524841,255.824814 
	C585.521606,249.507843 584.976868,243.191727 584.697021,236.873901 
	C584.638123,235.544006 584.637756,234.203278 584.734192,232.876526 
	C584.916260,230.371872 586.023560,228.497635 588.740479,227.537338 
	C591.836426,237.211426 588.688721,247.530167 591.984619,256.881409 
	C594.252991,257.600952 595.035767,256.201630 595.880737,254.984741 
	C600.916199,247.732925 606.027161,240.531036 610.927429,233.188751 
	C613.785767,228.905869 612.709656,218.945801 609.221863,215.206680 
	C607.062744,212.891968 604.810608,210.664185 602.610657,208.387314 
	C600.648010,206.356064 600.433289,204.401520 603.086731,202.344589 
	C608.702881,205.410690 611.788574,211.686539 617.538452,214.590378 
	C619.777039,212.452576 618.765991,210.282990 618.600830,208.205063 
	C617.814636,198.309219 613.134766,189.390945 611.545227,179.346161 
M521.866333,292.071289 
	C517.652405,291.887207 515.453613,295.278290 512.655701,297.449493 
	C502.425018,305.388672 502.463654,305.689728 511.672913,314.875275 
	C515.222412,318.415649 523.274048,318.810791 526.895325,315.457245 
	C531.037354,311.621460 535.119934,307.712219 539.063171,303.673676 
	C542.674988,299.974487 541.850281,296.156830 536.802307,294.810303 
	C532.204651,293.583923 527.667786,291.620850 521.866333,292.071289 
M533.593933,317.204163 
	C532.066467,318.777740 530.389221,320.357483 531.556335,322.832825 
	C532.203491,324.205414 533.503235,324.490326 534.961121,324.235870 
	C549.422729,321.712189 562.754089,316.368713 574.882874,308.104309 
	C576.979858,306.675415 577.556091,304.626465 575.484253,302.646027 
	C573.014893,300.285645 561.633911,300.230682 559.158630,302.639282 
	C556.623657,305.105957 553.703430,306.484985 550.210266,306.352997 
	C545.674622,306.181610 542.289612,307.980194 539.510620,311.521973 
	C537.987488,313.463165 535.933777,314.988037 533.593933,317.204163 
M616.603333,251.143402 
	C617.268799,248.567688 618.168640,246.023682 618.522705,243.405869 
	C618.787109,241.450607 620.188171,238.709229 617.463257,237.634415 
	C614.934692,236.637070 613.628235,239.124542 612.468018,240.869019 
	C608.320190,247.105637 604.284912,253.417389 600.232971,259.717346 
	C598.747375,262.027130 598.006714,264.352844 598.922241,267.250305 
	C600.243469,271.431824 598.596008,275.034668 595.941833,278.324982 
	C594.493286,280.120667 592.467712,281.532135 591.800659,283.885284 
	C591.196655,286.016022 590.693115,288.471832 592.809753,289.841858 
	C595.262878,291.429779 596.324402,288.762390 597.442749,287.370178 
	C605.974854,276.748413 612.440491,264.999176 616.603333,251.143402 
M560.198120,276.573120 
	C559.575745,279.653503 557.171021,282.541718 559.353271,286.643311 
	C565.157349,283.868225 569.820801,279.634247 575.132324,276.493347 
	C578.604919,274.439850 579.230652,271.748901 578.043335,268.086151 
	C576.664795,263.833557 573.264954,262.087372 569.472595,261.660919 
	C565.888672,261.257965 563.971741,263.810883 563.153931,267.318817 
	C562.481018,270.205261 561.333740,272.981140 560.198120,276.573120 
M581.603760,280.201843 
	C575.466125,281.823639 570.884155,286.091125 566.118469,289.830841 
	C563.161255,292.151459 565.285217,294.414032 568.063293,295.180389 
	C570.919678,295.968353 573.934143,296.387177 576.899658,296.521118 
	C580.236389,296.671875 585.659485,291.283112 585.698792,287.804443 
	C585.731628,284.908966 587.238464,281.111420 581.603760,280.201843 
M493.769409,313.380493 
	C492.774414,314.255890 491.722717,315.075500 490.795746,316.017853 
	C488.605377,318.244629 488.948059,320.326630 491.738586,321.494019 
	C496.194489,323.358063 500.986725,324.160370 505.766876,324.390472 
	C508.273468,324.511169 510.853668,323.208710 508.432465,320.092499 
	C505.526367,316.352173 502.469818,312.654541 498.423187,309.817932 
	C496.927307,310.963806 495.621674,311.963959 493.769409,313.380493 
z"/>
<path fill="#000000" opacity="1.000000" stroke="none" 
	d="
M645.249756,433.014771 
	C630.493347,425.547760 629.854309,402.685425 636.222107,392.671844 
	C641.172424,384.887115 651.591919,380.710571 661.776855,382.930481 
	C670.893799,384.917664 677.421997,390.132965 679.498291,399.771149 
	C679.977051,401.994019 680.417786,404.225098 680.887756,406.509552 
	C683.143005,406.096130 682.650818,404.463684 682.764221,403.322662 
	C684.306335,387.804230 697.335999,378.019012 713.264709,384.615479 
	C714.499146,385.126678 715.509155,385.513580 716.866699,384.354797 
	C720.176636,381.529449 724.159485,383.116119 727.850586,383.329865 
	C729.943848,383.451080 730.172607,385.448364 730.166687,387.174835 
	C730.120117,400.666626 730.114624,414.159149 729.955811,427.649750 
	C729.877747,434.278198 725.175476,439.158264 722.898071,444.966156 
	C722.489624,446.007904 720.964844,447.140991 719.834290,447.285797 
	C711.598572,448.340851 703.562378,451.790161 694.994751,449.090668 
	C687.592346,446.758240 684.509155,439.814423 687.752441,432.983307 
	C689.439331,429.430328 691.325745,429.189484 694.332825,431.098969 
	C698.612244,433.816376 703.384583,434.219330 708.299744,433.718872 
	C710.520752,433.492706 712.585999,433.025787 713.491150,430.573730 
	C712.667175,428.024780 710.473083,428.231018 708.555237,428.153992 
	C704.561829,427.993652 700.562256,427.943207 696.565002,427.930908 
	C692.413818,427.918152 689.615295,426.066498 688.158264,422.148987 
	C687.695862,420.905762 687.195190,419.632355 686.456543,418.546631 
	C685.334839,416.898041 684.032349,415.036255 681.748169,415.405914 
	C679.578308,415.757080 678.697754,417.578217 678.046021,419.639801 
	C673.964966,432.549866 658.089844,439.147400 645.249756,433.014771 
M652.070312,401.353790 
	C647.031555,402.370331 646.329529,405.718933 647.466309,410.001648 
	C648.762634,414.885345 653.253174,417.871063 657.992920,417.043701 
	C662.066284,416.332642 664.373718,413.747742 665.432007,409.908722 
	C666.521851,405.955566 663.230835,404.783020 660.921265,403.099854 
	C658.547363,401.369812 655.804016,400.796783 652.070312,401.353790 
M698.242554,408.558533 
	C698.862671,412.827423 702.008118,414.141632 705.639893,414.601105 
	C709.613586,415.103821 712.954285,413.620148 714.862122,410.088013 
	C716.194031,407.622253 717.192627,404.534790 713.992065,402.638397 
	C709.204895,399.801941 700.952515,402.683350 698.242554,408.558533 
z"/>
<path fill="#000000" opacity="1.000000" stroke="none" 
	d="
M364.842255,437.717773 
	C362.296661,443.601105 358.628876,446.063416 352.573456,445.283691 
	C347.992950,444.693848 343.492035,443.398315 339.000183,442.243835 
	C336.628693,441.634308 334.745667,440.096313 334.134155,437.648834 
	C333.284760,434.249084 331.060150,432.971527 327.825043,432.210510 
	C303.722107,426.540558 298.235291,396.230713 308.887695,381.394226 
	C317.698120,369.123291 334.349457,365.159393 348.163727,372.151367 
	C360.715424,378.504242 367.026855,394.503235 362.543365,408.538055 
	C360.575500,414.698120 357.601349,420.143036 352.223572,424.058136 
	C350.462402,425.340271 347.203156,426.611633 348.914520,429.243286 
	C350.816223,432.167755 353.878479,430.664886 356.476776,429.253967 
	C358.161621,428.339050 359.752014,425.326874 361.902466,428.005737 
	C364.007690,430.628265 367.961365,432.957367 364.842255,437.717773 
M349.063354,399.544769 
	C348.587006,392.629272 343.920807,384.905884 339.551819,383.801514 
	C331.046997,381.651642 323.375183,385.185852 319.509918,393.034302 
	C315.461334,401.255005 320.346802,412.560822 328.921692,415.705414 
	C338.162842,419.094391 349.500000,410.856781 349.063354,399.544769 
z"/>
<path fill="#000000" opacity="1.000000" stroke="none" 
	d="
M608.254700,407.825256 
	C606.242310,413.805389 607.489990,420.121368 603.637573,425.278076 
	C598.306213,432.414520 589.062988,436.075531 580.434448,433.636597 
	C577.484070,432.802673 574.711609,432.453217 571.634766,432.848022 
	C564.002502,433.827393 560.683167,430.409393 560.615479,422.731018 
	C560.502502,409.910614 561.195129,397.078430 560.114441,384.266937 
	C559.905945,381.795166 559.764282,379.284363 560.477539,376.817902 
	C561.034851,374.890594 561.741455,373.303345 564.218811,373.893890 
	C565.698486,374.246582 567.505981,374.774780 568.064819,372.871460 
	C568.734253,370.591400 566.405823,370.405579 565.061035,369.629028 
	C564.216858,369.141571 563.324951,368.736786 562.398804,367.266785 
	C565.067566,366.908356 567.730164,366.492798 570.406738,366.207397 
	C573.144714,365.915405 574.379395,367.222046 574.334961,369.987854 
	C574.284302,373.151398 574.254639,376.329529 574.497620,379.479614 
	C574.746338,382.704529 576.339722,384.066589 579.891174,383.394836 
	C597.339844,380.094391 607.859253,389.058655 608.254700,407.825256 
M589.614075,415.268494 
	C592.331787,412.688843 593.742126,409.552277 592.557495,405.901703 
	C591.476990,402.572144 588.102722,402.130463 585.281616,401.506256 
	C580.810425,400.516937 576.518738,403.879120 575.607727,408.678101 
	C574.999329,411.882599 578.255859,415.847504 582.290710,416.659943 
	C584.598450,417.124603 586.897888,417.053741 589.614075,415.268494 
z"/>
<path fill="#000000" opacity="1.000000" stroke="none" 
	d="
M545.583252,409.448975 
	C549.971191,415.652252 554.146851,421.564941 558.834534,428.202728 
	C554.165405,429.231384 550.537170,430.446075 546.836548,430.735382 
	C542.697205,431.058990 538.992737,429.805359 536.983765,425.475891 
	C535.213684,421.661407 531.314880,419.100677 531.176147,414.180267 
	C531.106384,411.705383 528.806824,409.826385 525.767761,410.119476 
	C522.377991,410.446411 520.737549,412.683258 520.434814,415.742645 
	C520.124817,418.876556 520.382263,422.062592 520.283081,425.222382 
	C520.142761,429.698273 517.265625,432.846008 513.424194,432.858185 
	C509.404755,432.870941 505.827759,429.536438 505.802826,425.200531 
	C505.705139,408.221466 505.797180,391.241394 505.752991,374.261871 
	C505.744995,371.180359 506.906097,369.838043 510.140503,369.667023 
	C520.249390,369.132507 520.244019,369.026306 520.274963,378.983612 
	C520.283264,381.647095 520.273621,384.310791 520.303345,386.973999 
	C520.316467,388.142059 520.284668,389.450592 521.500977,390.055939 
	C523.040283,390.822021 524.022827,389.607208 524.888977,388.658478 
	C528.479248,384.725891 532.677551,381.142700 535.402161,376.669586 
	C540.578003,368.171936 548.114685,369.303558 556.442871,370.089203 
	C555.679749,373.997406 553.886658,377.153656 551.896851,380.012329 
	C548.680664,384.632965 545.732910,389.502594 541.362000,393.252533 
	C538.549194,395.665680 538.323486,398.722260 540.227234,401.791229 
	C541.803711,404.332642 543.646301,406.708954 545.583252,409.448975 
z"/>
<path fill="#000000" opacity="1.000000" stroke="none" 
	d="
M404.470276,409.000610 
	C405.601227,398.461884 404.782410,388.298279 405.053467,378.151398 
	C405.265747,370.204407 409.737061,367.207825 417.293182,369.887085 
	C419.139008,370.541534 419.330444,371.910370 419.329987,373.432587 
	C419.326538,385.254211 419.548767,397.083923 419.177155,408.894653 
	C418.919891,417.070526 413.641937,422.909851 408.323090,428.480438 
	C407.066589,429.796417 405.305176,430.873291 403.401672,430.578888 
	C396.181244,429.462189 388.795288,430.028961 381.640045,427.983490 
	C376.741852,426.583252 374.134613,423.513824 372.637146,418.955078 
	C370.383087,412.092957 369.329559,405.110565 369.554596,397.859955 
	C369.797241,390.040985 369.737152,382.208160 369.615265,374.384399 
	C369.562073,370.969055 370.864288,369.747253 374.301147,369.655762 
	C384.071411,369.395630 384.065521,369.267700 384.087311,378.833405 
	C384.107391,387.657959 383.993683,396.485840 384.205261,405.305878 
	C384.350067,411.341980 387.892303,415.549011 393.039764,416.515625 
	C397.434692,417.340942 401.668823,414.681580 404.470276,409.000610 
z"/>
<path fill="#000000" opacity="1.000000" stroke="none" 
	d="
M448.596985,393.856812 
	C452.021454,370.833954 478.506531,361.664185 496.219879,374.644165 
	C499.808380,377.273743 501.734497,380.059784 497.612671,383.839661 
	C497.135925,384.276855 496.845215,384.922272 496.488220,385.483795 
	C492.778351,391.319580 491.617737,391.489227 486.182861,386.811218 
	C484.641724,385.484711 483.038269,384.448914 480.996887,383.998749 
	C472.331635,382.087830 469.650421,383.216309 466.052338,390.479401 
	C461.253265,400.166840 462.077209,407.505554 468.583588,413.024658 
	C474.163452,417.757874 481.176178,417.796722 487.449677,413.322021 
	C489.098206,412.146179 490.391327,409.173340 492.740570,410.453400 
	C495.766724,412.102203 498.127747,414.829590 500.148895,417.713165 
	C500.238525,417.841034 500.261353,418.024841 500.286896,418.187073 
	C501.278503,424.483643 491.603943,433.121582 485.563446,431.199371 
	C480.979126,429.740540 476.452545,429.556519 471.871826,430.970306 
	C469.522064,431.695496 466.846832,431.684021 465.050720,430.560150 
	C458.935486,426.733551 451.845703,424.100159 450.978210,414.810608 
	C450.341187,407.989227 446.876251,401.450928 448.596985,393.856812 
z"/>
<path fill="#000000" opacity="1.000000" stroke="none" 
	d="
M489.342041,468.190857 
	C487.520996,470.211945 485.462067,471.013245 483.270569,471.029633 
	C475.240906,471.089783 467.209961,470.993622 459.179626,470.938171 
	C456.881012,470.922302 456.033295,468.634766 454.355103,467.741455 
	C453.316559,467.629456 452.716431,468.128601 452.399963,468.985138 
	C451.914093,470.300140 451.002960,470.807129 449.664459,470.451904 
	C448.310028,470.092499 447.908844,469.020660 447.881409,467.774384 
	C447.837433,465.776031 447.800323,463.775574 447.842163,461.777710 
	C447.900787,458.975891 446.689667,458.131836 443.653198,459.448120 
	C444.480652,460.727051 446.695801,461.666504 445.416656,463.684021 
	C444.346008,465.372681 442.409851,464.803223 440.941864,465.470093 
	C441.127716,465.733826 441.241669,466.044556 441.463562,466.186554 
	C443.103821,467.236328 446.530334,465.658844 446.473541,468.950256 
	C446.431030,471.414917 443.824158,471.196228 442.113953,471.044403 
	C439.427612,470.805908 435.741394,472.537598 434.801880,468.031677 
	C434.344513,465.838226 435.272522,463.424957 433.970795,461.177277 
	C431.593964,462.315308 431.747711,464.540894 431.008850,466.281342 
	C430.258759,468.048340 430.202362,470.398529 427.705750,470.859436 
	C425.194489,471.323090 424.951904,468.953644 423.851929,467.644470 
	C423.555084,467.291138 423.053101,467.110199 422.661682,466.860596 
	C417.670776,471.888153 417.670776,471.888153 412.493683,464.383362 
	C411.136444,466.053497 409.974548,467.899414 408.418488,469.310577 
	C405.282715,472.154419 400.767883,471.853607 397.560059,468.851715 
	C393.315765,464.879852 390.333740,464.901001 386.237885,469.254242 
	C384.470154,471.132996 383.263428,471.642548 381.624054,469.162842 
	C379.270996,465.603668 374.871246,465.156555 372.321899,468.440460 
	C369.215851,472.441528 365.693542,471.810059 362.339539,469.566620 
	C359.686401,467.791992 357.582458,467.429047 355.262115,469.659882 
	C354.220917,470.660919 353.068146,471.390808 351.730255,470.474213 
	C350.297058,469.492279 350.943420,468.076538 351.427765,466.855255 
	C352.655640,463.759155 353.935516,460.682922 355.244751,457.620178 
	C355.925049,456.028717 356.835876,454.718658 358.898285,454.776978 
	C360.802917,454.830841 361.285492,456.281860 362.026764,457.575043 
	C363.364990,459.909546 363.522583,462.951141 366.075897,464.869843 
	C367.629517,462.443665 366.641998,460.032959 367.091614,457.822601 
	C367.358734,456.509521 367.506989,455.072571 369.262817,454.924835 
	C370.984070,454.780029 371.751526,455.936981 371.777618,457.373688 
	C371.839935,460.803864 373.488647,461.944397 376.826782,461.862000 
	C380.208374,461.778595 381.498352,460.435089 381.705383,457.070282 
	C381.859283,454.568817 387.437103,453.178009 391.008575,455.344269 
	C394.304047,457.343170 396.742493,457.698883 399.836914,455.236115 
	C401.403046,453.989685 403.738312,454.393890 405.671631,454.873688 
	C407.999146,455.451324 409.671295,457.351746 412.714264,455.130981 
	C415.148834,453.354187 415.689392,457.769897 417.331207,459.123260 
	C420.257324,458.976685 419.698273,454.458618 422.886932,454.859711 
	C426.196075,455.275970 424.979309,459.152924 427.509613,460.622742 
	C429.583008,459.073151 428.486237,454.729553 432.033875,454.435394 
	C434.668182,454.216980 437.483826,453.877075 439.963104,454.542908 
	C446.617554,456.329956 453.752380,452.510071 460.158539,456.521912 
	C462.321594,457.876526 462.938782,454.664154 464.898621,454.713287 
	C471.597107,454.881195 478.360107,454.293518 484.985352,455.022430 
	C490.998718,455.684021 492.769409,461.467560 489.342041,468.190857 
M402.669403,465.805145 
	C405.093689,465.977875 406.487427,464.879181 406.528046,462.426758 
	C406.551483,461.013794 405.855011,459.871613 404.427429,459.387817 
	C403.015686,458.909332 401.682159,459.271515 400.912445,460.477295 
	C399.677551,462.411743 399.904297,464.237701 402.669403,465.805145 
M480.996155,462.605804 
	C481.031830,464.519470 481.654327,465.935547 483.908295,465.708496 
	C485.434845,465.554688 486.289429,464.543518 486.480743,463.081116 
	C486.675934,461.589294 485.923828,460.398926 484.631134,459.833557 
	C482.699585,458.988831 481.408661,459.710449 480.996155,462.605804 
z"/>
<path fill="#000000" opacity="1.000000" stroke="none" 
	d="
M523.388184,462.409607 
	C526.699280,453.523010 532.012390,452.249237 540.441895,458.194275 
	C543.159302,457.079620 545.463135,453.432281 548.596313,454.418335 
	C554.299683,456.213257 559.696472,454.836639 565.236877,454.819122 
	C570.054443,454.803833 575.057922,454.868378 579.966431,454.757233 
	C583.623535,454.674438 584.229492,458.683533 587.020142,459.683197 
	C589.531189,453.584717 589.794983,453.510651 594.749390,457.582886 
	C597.668579,455.275513 601.016785,453.892334 604.844788,454.842133 
	C607.023804,455.382843 609.262573,456.270691 607.727112,459.280853 
	C607.206726,460.300934 607.276245,460.973175 607.776489,462.005615 
	C609.183289,464.909485 609.347839,468.055237 606.520630,470.058838 
	C603.520264,472.185150 600.163757,471.587158 597.163635,469.535614 
	C596.095276,468.804932 595.138855,467.910583 593.782471,466.807190 
	C590.627625,475.889130 587.853516,467.725647 585.205139,466.944153 
	C583.805176,467.076141 583.484009,467.836792 583.292236,468.665955 
	C582.940491,470.186615 582.032104,471.064056 580.459534,470.830719 
	C578.667847,470.564850 578.023682,469.180420 577.972107,467.566803 
	C577.893799,465.114594 577.951599,462.657990 577.203247,460.205719 
	C577.203247,462.009094 577.308289,463.819946 577.180542,465.614227 
	C576.940857,468.981750 576.886047,472.746704 571.778687,469.498199 
	C571.361450,469.232849 570.443054,469.341583 569.977051,469.630585 
	C565.053711,472.684052 560.752014,471.068848 556.576294,467.649689 
	C551.985718,472.268463 547.272217,472.642395 542.463135,468.269135 
	C540.811768,466.767426 539.453491,467.498840 538.136597,468.795105 
	C535.104187,471.779907 531.654175,471.925598 528.035095,470.098145 
	C526.610229,469.378632 525.579102,469.639954 524.001709,470.034363 
	C516.150452,471.997375 508.062012,469.682739 500.082520,470.837891 
	C498.416718,471.079071 497.861420,469.111664 497.836426,467.499908 
	C497.795135,464.835785 497.946716,462.157288 497.720093,459.510284 
	C497.415253,455.949493 498.517181,454.377777 502.415527,454.484650 
	C506.544708,454.597931 510.681488,454.009216 511.584167,459.567444 
	C511.730988,460.471588 511.479614,461.440430 511.313019,463.763977 
	C513.339600,460.929230 512.452515,458.914124 512.897217,457.194275 
	C513.218689,455.950958 513.744019,455.010956 515.182556,455.021515 
	C516.668823,455.032440 517.186157,456.020355 517.266418,457.300507 
	C517.360168,458.795105 517.307617,460.299713 517.423584,461.791840 
	C517.557617,463.516022 516.859314,465.822113 519.408386,466.286621 
	C521.947266,466.749268 522.931519,464.982025 523.388184,462.409607 
M533.165710,459.458679 
	C530.677185,459.318573 529.499634,460.648132 529.391418,462.987762 
	C529.332458,464.260651 530.008362,465.215820 531.270447,465.574738 
	C532.709717,465.984070 533.914429,465.409332 534.763855,464.296234 
	C536.159973,462.466705 535.620239,460.925293 533.165710,459.458679 
M546.149902,463.221558 
	C546.472290,464.592621 547.150391,465.973297 548.708557,465.448120 
	C550.964844,464.687653 551.021179,462.289185 552.014343,460.362213 
	C548.840088,458.575195 546.859009,458.935608 546.149902,463.221558 
M602.182007,465.516663 
	C603.193726,465.121887 603.632080,464.267578 603.961731,463.317108 
	C604.331787,462.250000 604.960510,461.169586 603.979309,460.122040 
	C603.217651,459.308838 602.254150,459.230438 601.291809,459.689850 
	C599.996521,460.308136 599.343567,461.390625 599.341492,462.826111 
	C599.339417,464.300140 599.933960,465.342072 602.182007,465.516663 
M563.003784,465.547760 
	C566.713623,465.877991 566.286865,463.053497 566.316833,460.894409 
	C566.332031,459.802734 565.080200,459.295837 564.034668,459.766937 
	C561.783203,460.781311 560.575989,462.332855 562.070251,464.852875 
	C562.152222,464.991089 562.298584,465.091187 563.003784,465.547760 
z"/>
<path fill="#000000" opacity="1.000000" stroke="none" 
	d="
M627.355652,391.024780 
	C627.341309,402.624146 627.381104,413.747406 627.287720,424.869568 
	C627.243835,430.092773 624.431519,433.024902 619.886047,432.948273 
	C615.649780,432.876862 612.887817,429.822937 612.890747,424.920410 
	C612.901245,407.296387 612.922363,389.671967 613.067810,372.048737 
	C613.117004,366.095398 613.418823,366.234985 621.041931,365.953278 
	C625.743896,365.779510 627.263855,367.291168 627.492188,372.137573 
	C627.782654,378.304932 627.215454,384.414612 627.355652,391.024780 
z"/>
<path fill="#000000" opacity="1.000000" stroke="none" 
	d="
M429.379486,370.108246 
	C444.716095,369.302765 441.994202,369.104736 442.183350,381.271149 
	C442.403351,395.425629 442.234406,409.586365 442.205414,423.744354 
	C442.195007,428.820404 439.957367,431.087952 435.050598,431.129211 
	C430.216919,431.169861 427.723267,428.786865 427.712646,423.885010 
	C427.677673,407.728516 427.687134,391.571838 427.724731,375.415344 
	C427.728851,373.643738 427.278229,371.692444 429.379486,370.108246 
z"/>
<path fill="#000000" opacity="1.000000" stroke="none" 
	d="
M414.366882,277.396545 
	C406.863739,282.740631 399.646454,287.867981 392.429138,292.995300 
	C392.057068,292.522491 391.684967,292.049713 391.312897,291.576904 
	C416.831482,268.799194 442.350098,246.021469 467.868683,223.243744 
	C468.285370,223.558990 468.702057,223.874237 469.118744,224.189499 
	C467.435913,231.923141 468.492126,240.051498 459.586334,245.677338 
	C444.139221,255.435349 429.582703,266.603210 414.366882,277.396545 
z"/>
<path fill="#000000" opacity="1.000000" stroke="none" 
	d="
M439.209229,285.234039 
	C423.258484,297.066284 407.596558,308.690399 391.934662,320.314545 
	C391.608673,319.926331 391.282715,319.538086 390.956726,319.149872 
	C415.491974,296.330261 440.027252,273.510620 464.792938,250.476654 
	C468.275391,258.876221 466.910583,264.598480 460.706665,269.270447 
	C453.671722,274.568207 446.570465,279.777924 439.209229,285.234039 
z"/>
<path fill="#000000" opacity="1.000000" stroke="none" 
	d="
M497.310944,276.700653 
	C501.982452,277.110352 506.180511,274.956207 511.748566,276.601227 
	C486.252899,299.515015 460.797150,321.100952 434.873016,343.057465 
	C434.301575,340.353027 435.872009,339.412201 436.907745,338.309265 
	C455.480652,318.530670 474.080231,298.777039 492.656067,279.001160 
	C493.833313,277.747864 495.026581,276.655518 497.310944,276.700653 
z"/>
<path fill="#000000" opacity="1.000000" stroke="none" 
	d="
M695.345215,456.969177 
	C696.483154,457.804871 697.143616,458.092804 698.124268,457.045288 
	C701.133301,453.831024 707.425415,453.841583 710.387512,456.918243 
	C711.908081,458.497620 712.627930,460.464142 711.587280,462.398834 
	C710.220886,464.939148 710.449158,467.412048 711.303101,469.897156 
	C707.968750,472.130310 706.745056,468.826874 704.405151,467.686432 
	C702.079773,470.203888 699.367126,473.511993 697.460144,467.276428 
	C689.143372,472.499603 689.222290,472.392242 681.132568,466.444183 
	C678.345215,464.394714 675.411011,464.741730 673.673767,468.210724 
	C673.072876,469.410522 672.870667,470.937836 671.104614,470.685730 
	C669.152527,470.407135 669.189697,468.698669 668.935608,467.226227 
	C668.486267,464.621857 669.740234,461.479980 666.657043,459.492767 
	C663.329834,461.138306 664.567444,464.124664 664.269043,466.564148 
	C664.053650,468.325043 664.514465,470.667053 661.766357,470.538025 
	C659.430664,470.428436 659.750549,468.321716 659.666992,466.693176 
	C659.490417,463.249481 660.805359,459.454163 655.923401,457.570831 
	C654.500488,457.021851 655.809448,454.757477 657.689697,454.780487 
	C665.610107,454.877319 673.617859,453.319855 681.415649,455.743866 
	C682.906433,456.207275 683.976807,455.677399 685.215088,455.275024 
	C688.743652,454.128326 692.100525,454.204285 695.345215,456.969177 
M688.132263,466.143280 
	C690.658875,466.845154 691.847778,465.388153 692.294312,463.274841 
	C692.617615,461.744873 691.907532,460.342896 690.460632,459.607666 
	C688.906799,458.818115 687.484680,459.500275 686.562744,460.708038 
	C685.070251,462.663300 685.967896,464.363800 688.132263,466.143280 
z"/>
<path fill="#000000" opacity="1.000000" stroke="none" 
	d="
M332.793701,466.856293 
	C332.765137,464.435516 332.765137,462.449707 332.765137,460.463898 
	C332.615601,460.452789 332.466064,460.441711 332.316498,460.430603 
	C332.073456,462.900482 331.893066,465.378754 331.562378,467.836823 
	C331.382690,469.172211 330.950104,470.561218 329.290039,470.703094 
	C327.636017,470.844452 326.954132,469.756683 326.726471,468.268524 
	C326.516052,466.893158 326.173035,465.529327 324.391449,465.620422 
	C322.688904,465.707458 322.428802,467.141266 322.050323,468.432861 
	C321.647919,469.806274 320.894043,470.969421 319.288116,470.778687 
	C317.344849,470.547852 317.167358,468.895508 317.076080,467.383850 
	C316.955841,465.393036 316.997437,463.392914 316.904572,461.399811 
	C316.849213,460.210663 316.702972,458.964478 315.068665,458.972290 
	C313.523956,458.979645 312.505829,459.760590 312.394989,461.336761 
	C312.266846,463.159393 312.328613,464.994507 312.255096,466.822113 
	C312.189362,468.456207 312.430908,470.545563 310.101227,470.626434 
	C307.313049,470.723236 307.812561,468.350983 307.708313,466.615967 
	C307.618622,465.123474 307.685822,463.622192 307.653687,462.125427 
	C307.628113,460.934509 307.425720,459.812775 306.340881,459.052979 
	C305.223053,458.269989 303.006989,458.221619 303.682556,456.118408 
	C304.364868,453.994110 306.466339,454.709656 308.005585,454.702332 
	C311.152740,454.687347 314.317871,455.152832 317.443237,454.941803 
	C319.739716,454.786743 321.367737,454.762573 321.694641,457.571198 
	C321.835602,458.782379 322.609283,459.729126 324.029510,459.738892 
	C325.402832,459.748352 326.318787,458.938934 326.496613,457.703125 
	C326.932465,454.673462 328.948914,454.736877 331.280914,454.799438 
	C334.099670,454.875031 336.929474,454.501648 339.750214,454.553925 
	C341.733704,454.590729 344.707001,453.667053 344.838440,456.884918 
	C344.957397,459.797882 342.020721,458.932709 339.750702,459.567230 
	C341.643219,460.373505 344.256287,459.982056 344.052734,462.640472 
	C343.825562,465.607269 340.577209,464.472687 338.775116,466.221222 
	C339.815948,466.330444 340.428589,466.420380 341.044342,466.454590 
	C342.909882,466.558136 345.091248,466.555603 344.918854,469.146484 
	C344.764954,471.459229 342.567963,471.326233 341.017944,471.130402 
	C337.928131,470.740051 333.508423,472.880035 332.793701,466.856293 
z"/>
<path fill="#000000" opacity="1.000000" stroke="none" 
	d="
M642.948730,462.868347 
	C645.022522,460.015594 644.684998,455.089447 648.663696,455.058044 
	C653.050476,455.023407 652.763306,459.995483 654.256165,462.899231 
	C655.421204,465.165131 656.943237,467.463715 656.624939,470.126495 
	C656.083374,470.468201 655.629150,470.845184 655.560974,470.785004 
	C649.341858,465.293732 643.411987,471.716339 637.267456,471.294495 
	C632.824463,470.989471 629.205688,470.740173 629.481506,464.570068 
	C625.997375,466.100342 622.300049,465.918213 620.253174,469.278503 
	C619.472778,470.559601 618.403015,471.220612 616.924744,470.643890 
	C615.664490,470.152283 615.320862,468.914825 615.336914,467.767334 
	C615.385559,464.287262 615.175537,460.727478 615.838806,457.350433 
	C616.769958,452.609344 620.951965,454.628174 623.627930,454.760040 
	C626.284973,454.890961 628.736633,456.610809 631.638977,454.982422 
	C632.921997,454.262573 634.117798,455.465149 634.237915,457.093262 
	C634.311157,458.085297 634.266052,459.086365 634.346436,460.077515 
	C634.525879,462.290863 633.633789,465.029663 636.572266,466.084686 
	C639.445496,467.116241 641.270020,465.381134 642.948730,462.868347 
z"/>
<path fill="#000000" opacity="1.000000" stroke="none" 
	d="
M480.651367,559.652161 
	C477.439789,562.153320 470.141083,562.932861 468.757599,560.958557 
	C466.905975,558.316040 467.600159,555.175903 468.212158,552.297852 
	C468.651337,550.232544 470.781769,550.491699 472.387573,550.405945 
	C475.474792,550.240967 476.896973,552.041565 477.341400,555.568604 
	C478.660492,553.412903 480.309692,552.501770 482.334351,553.027832 
	C487.961975,554.489990 493.769348,552.068909 499.576782,554.300720 
	C501.570862,555.067017 504.999756,552.099792 508.005676,550.732483 
	C508.622620,554.250610 510.601257,558.289062 507.595764,561.026428 
	C504.900848,563.480957 501.015167,560.130066 497.897095,561.121582 
	C496.030914,559.738525 497.678040,557.181396 495.640900,556.145447 
	C492.983704,556.849060 494.766479,559.915894 492.894623,561.064758 
	C491.187744,561.521301 491.427399,559.731323 490.588806,558.908997 
	C490.191101,561.972107 487.770966,561.796204 485.761810,561.731079 
	C482.528473,561.626282 483.080231,558.669495 482.731598,556.593872 
	C480.768066,556.865662 481.157867,558.345703 480.651367,559.652161 
z"/>
<path fill="#000000" opacity="1.000000" stroke="none" 
	d="
M605.378296,556.435059 
	C605.721558,558.121094 606.148071,559.485474 606.559937,560.803101 
	C605.701965,561.733826 604.534790,562.034302 603.841248,561.249878 
	C602.323303,559.532837 601.368408,559.627075 599.598572,561.158936 
	C597.101074,563.320557 594.106934,560.773193 591.062134,561.260742 
	C586.502319,561.990967 581.289856,563.283508 576.811646,559.918823 
	C574.278137,558.015320 572.363586,561.106201 569.623352,561.291016 
	C569.919800,556.881104 571.867432,553.667786 574.182190,550.721497 
	C576.843079,551.050476 576.792480,553.513855 578.528137,554.834045 
	C583.017334,552.085388 588.027466,553.356567 593.069519,553.424988 
	C596.089661,553.466003 599.583435,553.905518 602.486267,552.088623 
	C603.834473,551.244751 604.697205,552.142822 605.619873,552.756348 
	C607.363403,553.915710 606.090454,555.017944 605.378296,556.435059 
z"/>
<path fill="#000000" opacity="1.000000" stroke="none" 
	d="
M663.738525,354.297485 
	C665.476868,359.621002 670.384094,360.313507 674.141907,362.208252 
	C674.042114,364.411224 672.341553,364.269043 671.225525,364.696533 
	C668.235229,365.841949 665.977783,367.467743 665.706726,371.007294 
	C665.633728,371.961487 665.265320,373.055786 664.660767,373.771912 
	C663.486267,375.163025 663.041565,377.881531 660.356873,377.038574 
	C658.149841,376.345551 657.537048,374.466309 657.711121,372.237091 
	C657.988159,368.688538 655.773743,366.841431 652.950012,365.372192 
	C651.414124,364.573059 649.291931,364.768494 648.004211,362.115173 
	C654.974060,360.709167 659.299011,356.424133 660.624329,349.426605 
	C663.050293,350.667328 663.009766,352.488617 663.738525,354.297485 
z"/>
<path fill="#000000" opacity="1.000000" stroke="none" 
	d="
M538.333130,556.529907 
	C537.802795,558.161438 537.471985,559.581421 537.212158,560.697021 
	C529.508606,561.140747 521.899536,562.006836 514.031494,560.653381 
	C513.354370,557.720886 513.359436,554.545532 514.486511,550.497559 
	C518.315735,555.920715 521.338074,552.428833 524.521484,550.583069 
	C526.059204,551.341614 525.506470,553.296265 526.599854,554.309509 
	C531.017761,551.790955 535.939514,553.239319 540.416321,553.312195 
	C544.287659,553.375244 543.587769,557.736206 542.813599,560.808105 
	C539.170654,561.099487 542.638855,555.374268 538.333130,556.529907 
z"/>
<path fill="#000000" opacity="1.000000" stroke="none" 
	d="
M717.936646,456.751953 
	C719.263184,458.418701 719.563416,460.485992 721.664856,461.066895 
	C723.687683,460.234497 724.210510,458.145416 725.326233,456.567932 
	C726.168518,455.377167 727.159546,454.588104 728.648743,455.042145 
	C730.001160,455.454407 730.166321,456.696136 730.183533,457.872284 
	C730.232117,461.184753 730.236450,464.498230 730.222595,467.811157 
	C730.216553,469.257965 728.939331,471.228607 728.211548,470.422180 
	C725.495117,467.412262 721.031982,470.257629 718.628418,466.940338 
	C717.000000,467.853699 717.771484,471.387604 714.858032,470.548767 
	C712.244385,469.796234 712.929016,467.383606 712.835022,465.511108 
	C712.710693,463.033905 712.561890,460.514862 712.867920,458.069397 
	C713.307007,454.561096 714.980469,453.640991 717.936646,456.751953 
z"/>
<path fill="#000000" opacity="1.000000" stroke="none" 
	d="
M565.583130,556.591064 
	C564.833801,558.470398 564.384949,560.096436 563.588684,561.529541 
	C562.056030,564.288086 560.282898,565.384583 557.323669,562.782410 
	C555.593750,561.261230 553.690247,558.500000 550.601501,561.577026 
	C549.379517,557.461182 549.615479,554.110901 550.409973,550.174377 
	C554.439148,552.444214 559.494019,551.360840 562.081726,555.683716 
	C563.648926,555.265625 563.902466,553.343994 565.431946,553.492859 
	C566.566345,554.404907 566.027893,555.336365 565.583130,556.591064 
z"/>
<path fill="#000000" opacity="1.000000" stroke="none" 
	d="
M453.020569,552.985840 
	C451.708344,553.051086 450.396088,553.116333 448.991455,553.186157 
	C449.240021,554.973694 451.426086,554.271301 451.772583,555.984436 
	C451.994354,557.870972 449.772980,557.502197 448.737366,558.355408 
	C449.721741,559.562012 451.584961,558.734497 452.261658,560.460266 
	C452.075958,560.725647 451.889496,561.317383 451.554535,561.418823 
	C449.112610,562.158142 446.086700,562.843750 445.184052,559.863403 
	C444.329956,557.043457 443.448151,553.236389 446.133301,551.020874 
	C448.028900,549.456665 451.154358,548.976990 452.911163,552.659302 
	C452.997070,553.011169 453.020569,552.985840 453.020569,552.985840 
z"/>
<path fill="#000000" opacity="1.000000" stroke="none" 
	d="
M440.172729,550.649170 
	C442.662109,551.440735 444.078339,552.802307 443.795959,555.132568 
	C443.542236,557.226379 442.033142,558.426331 439.971863,558.341248 
	C437.821259,558.252319 437.899780,560.747864 436.311035,561.194336 
	C433.030945,555.067017 434.503693,550.654663 440.172729,550.649170 
z"/>
<path fill="#000000" opacity="1.000000" stroke="none" 
	d="
M452.987549,553.026001 
	C458.123901,549.372375 459.376617,549.332214 462.710236,553.035156 
	C460.373840,553.480103 457.297333,551.801636 456.355377,555.229736 
	C456.018494,556.455872 456.291779,557.619751 457.455322,558.269592 
	C460.132965,559.765137 460.311249,556.239380 462.291107,555.533569 
	C463.811218,557.897522 463.588654,559.831726 461.322815,561.036499 
	C458.673676,562.445068 456.129425,561.830261 454.158600,559.503113 
	C452.757599,557.848877 452.774139,555.831360 452.987061,553.397644 
	C453.020569,552.985840 452.997070,553.011169 452.987549,553.026001 
z"/>
<path fill="#000000" opacity="1.000000" stroke="none" 
	d="
M427.626465,560.507446 
	C431.772308,556.652771 431.919861,555.618896 428.540558,551.235291 
	C430.280853,550.055481 432.178833,549.802612 433.130890,551.702698 
	C434.393372,554.222412 434.645599,557.225220 433.259949,559.789490 
	C432.074371,561.983582 429.956146,562.278381 427.626465,560.507446 
z"/>
<path fill="#000000" opacity="1.000000" stroke="none" 
	d="
M548.496216,560.151367 
	C546.462524,562.644409 545.474487,561.099487 544.837341,559.173157 
	C544.373108,557.769653 544.234741,556.257751 543.959412,554.792603 
	C543.715942,553.497009 544.132568,552.348999 545.333008,551.917297 
	C545.956909,551.692932 546.920471,552.081116 547.606506,552.433838 
	C548.837402,553.066772 549.237549,554.068542 548.296143,555.287659 
	C547.099365,556.837646 547.189697,558.343872 548.496216,560.151367 
z"/>
</svg>